<svg width="24" height="24" viewBox="0 0 24 24" fill="none" xmlns="http://www.w3.org/2000/svg">
<path d="M4 16.5L6.5 19L11.5 14" stroke="#222222"/>
<path d="M12.25 18.7778H17.3333C18.2668 18.7778 18.7335 18.7778 19.09 18.5961C19.4036 18.4363 19.6586 18.1814 19.8183 17.8678C20 17.5112 20 17.0445 20 16.1111V11.4449C20 10.5115 20 10.0448 19.8183 9.68824C19.6586 9.37464 19.4036 9.11967 19.09 8.95988C18.7335 8.77822 18.2668 8.77822 17.3333 8.77822H13.8588C13.4822 8.77822 13.2939 8.77822 13.1201 8.73033C12.9661 8.6879 12.821 8.61814 12.6916 8.52438C12.5456 8.41855 12.428 8.27151 12.1928 7.97744L11.2516 6.80078C11.0164 6.50671 10.8988 6.35968 10.7528 6.25384C10.6235 6.16008 10.4784 6.09032 10.3244 6.04789C10.1505 6 9.96224 6 9.58568 6H7.16667C6.23325 6 5.76654 6 5.41002 6.18166C5.09641 6.34144 4.84144 6.59641 4.68166 6.91002C4.5 7.26654 4.5 7.73325 4.5 8.66667V12.3889V14.5" stroke="#222222"/>
</svg>
