<svg width="24" height="24" viewBox="0 0 24 24" fill="none" xmlns="http://www.w3.org/2000/svg">
<g clip-path="url(#clip0_1_3)">
<path d="M4.5 8.66667C4.5 7.73325 4.5 7.26654 4.68166 6.91002C4.84144 6.59641 5.09641 6.34144 5.41002 6.18166C5.76654 6 6.23325 6 7.16667 6H9.58568C9.96224 6 10.1505 6 10.3244 6.04789C10.4784 6.09032 10.6235 6.16008 10.7528 6.25384C10.8988 6.35968 11.0164 6.50671 11.2516 6.80078L12.1928 7.97744C12.428 8.27151 12.5456 8.41855 12.6916 8.52438C12.821 8.61814 12.9661 8.6879 13.1201 8.73033C13.2939 8.77822 13.4822 8.77822 13.8588 8.77822H17.3333C18.2668 8.77822 18.7335 8.77822 19.09 8.95988C19.4036 9.11967 19.6586 9.37464 19.8183 9.68824C20 10.0448 20 10.5115 20 11.4449V16.1111C20 17.0445 20 17.5112 19.8183 17.8678C19.6586 18.1814 19.4036 18.4363 19.09 18.5961C18.7335 18.7778 18.2668 18.7778 17.3333 18.7778H7.16667C6.23325 18.7778 5.76654 18.7778 5.41002 18.5961C5.09641 18.4363 4.84144 18.1814 4.68166 17.8678C4.5 17.5112 4.5 17.0445 4.5 16.1111V8.66667Z" stroke="#222222"/>
</g>
<defs>
<clipPath id="clip0_1_3">
<rect width="24" height="24" fill="white"/>
</clipPath>
</defs>
</svg>
