<svg width="24" height="24" viewBox="0 0 24 24" fill="none" xmlns="http://www.w3.org/2000/svg">
<path d="M17.5645 8.16291C17.3855 10.0597 16.6016 14.6661 16.2048 16.7903C16.0355 17.6903 15.7064 17.9903 15.3871 18.0194C14.6903 18.0823 14.1629 17.5597 13.4855 17.1145C12.4306 16.4226 11.8306 15.9919 10.8097 15.3145C9.62417 14.5355 10.3935 14.1048 11.0661 13.4032C11.2451 13.2194 14.3129 10.4274 14.3709 10.1758C14.3806 10.1419 14.3855 10.0258 14.3129 9.96291C14.2403 9.90001 14.1387 9.9242 14.0661 9.93871C13.9597 9.9613 12.2726 11.0758 9.00482 13.2823C8.5274 13.6113 8.09353 13.771 7.7032 13.7613C7.27256 13.7516 6.44998 13.5194 5.83546 13.321C5.08546 13.079 4.48546 12.9484 4.53869 12.5323C4.56449 12.3161 4.86288 12.0952 5.43385 11.8694C8.93062 10.3468 11.2629 9.34194 12.4306 8.85484C15.7645 7.47097 16.4564 7.22904 16.9064 7.21936C17.008 7.21936 17.2258 7.24355 17.3709 7.35968C17.4657 7.44298 17.5261 7.55853 17.5403 7.68388C17.5665 7.84212 17.5746 8.00283 17.5645 8.16291Z" fill="black"/>
</svg>
