<svg width="24" height="24" viewBox="0 0 24 24" fill="none" xmlns="http://www.w3.org/2000/svg">
<path d="M4 8.66667C4 7.73325 4 7.26654 4.18166 6.91002C4.34144 6.59641 4.59641 6.34144 4.91002 6.18166C5.26654 6 5.73325 6 6.66667 6H9.08568C9.46224 6 9.65053 6 9.82437 6.04789C9.97837 6.09032 10.1235 6.16008 10.2528 6.25384C10.3988 6.35968 10.5164 6.50671 10.7516 6.80078L11.6928 7.97744C11.928 8.27151 12.0456 8.41855 12.1916 8.52438C12.321 8.61814 12.4661 8.6879 12.6201 8.73033C12.7939 8.77822 12.9822 8.77822 13.3588 8.77822H16.8333C17.7668 8.77822 18.2335 8.77822 18.59 8.95988C18.9036 9.11967 19.1586 9.37464 19.3183 9.68824C19.5 10.0448 19.5 10.5115 19.5 11.4449V16.1111C19.5 17.0445 19.5 17.5112 19.3183 17.8678C19.1586 18.1814 18.9036 18.4363 18.59 18.5961C18.2335 18.7778 17.7668 18.7778 16.8333 18.7778H6.66667C5.73325 18.7778 5.26654 18.7778 4.91002 18.5961C4.59641 18.4363 4.34144 18.1814 4.18166 17.8678C4 17.5112 4 17.0445 4 16.1111V8.66667Z" fill="#222222" stroke="#222222" stroke-width="1.11111"/>
</svg>
